<svg width="474" height="237" viewBox="0 0 474 237" fill="none" xmlns="http://www.w3.org/2000/svg">
<rect width="474" height="237" rx="8.74539" fill="#000530"/>
<path fill-rule="evenodd" clip-rule="evenodd" d="M473.978 8.74538C473.978 3.91543 470.063 0 465.233 0H353.049C353.022 0 353 0.0220163 353 0.0491791V0.0491791C353 52.6684 394.186 95.3248 444.991 95.3248C452.939 95.3248 460.652 94.2807 468.009 92.3177C471.617 91.3549 473.978 87.9903 473.978 84.2557V8.74538Z" fill="url(#paint0_radial_648_180)" fill-opacity="0.75"/>
<path d="M206.835 136.827V117.86H202.514V113.453H206.835V112.244C206.835 110.487 207.195 109.018 207.915 107.837C208.635 106.627 209.628 105.706 210.896 105.072C212.192 104.438 213.675 104.121 215.346 104.121C215.662 104.121 216.022 104.15 216.426 104.208C216.829 104.237 217.16 104.28 217.419 104.337V108.571C217.189 108.514 216.93 108.485 216.642 108.485C216.354 108.456 216.123 108.442 215.95 108.442C214.654 108.442 213.617 108.744 212.84 109.349C212.062 109.925 211.673 110.89 211.673 112.244V113.453H222.863V117.86H211.673V136.827H206.835ZM221.567 136.827V104.121H226.406V136.827H221.567ZM239.129 137.345C237.544 137.345 236.148 137.071 234.938 136.524C233.757 135.948 232.835 135.17 232.173 134.191C231.51 133.183 231.179 132.002 231.179 130.648C231.179 129.381 231.453 128.243 232 127.235C232.576 126.227 233.454 125.378 234.635 124.686C235.816 123.995 237.3 123.505 239.085 123.217L247.208 121.878V125.723L240.036 126.976C238.74 127.207 237.789 127.624 237.184 128.229C236.58 128.805 236.277 129.554 236.277 130.476C236.277 131.368 236.608 132.103 237.271 132.679C237.962 133.226 238.841 133.5 239.906 133.5C241.231 133.5 242.383 133.212 243.363 132.636C244.371 132.06 245.148 131.296 245.696 130.346C246.243 129.367 246.516 128.287 246.516 127.106V121.1C246.516 119.948 246.084 119.012 245.22 118.292C244.385 117.543 243.262 117.169 241.85 117.169C240.554 117.169 239.417 117.515 238.437 118.206C237.487 118.868 236.781 119.732 236.32 120.798L232.259 118.767C232.691 117.615 233.397 116.607 234.376 115.743C235.355 114.85 236.493 114.159 237.789 113.669C239.114 113.18 240.511 112.935 241.98 112.935C243.823 112.935 245.451 113.281 246.862 113.972C248.302 114.663 249.411 115.628 250.189 116.866C250.995 118.076 251.398 119.487 251.398 121.1V136.827H246.732V132.593L247.726 132.722C247.179 133.673 246.473 134.494 245.609 135.185C244.774 135.876 243.809 136.409 242.714 136.783C241.649 137.158 240.453 137.345 239.129 137.345ZM266.794 137.086C264.346 137.086 262.445 136.395 261.092 135.012C259.738 133.629 259.061 131.685 259.061 129.179V117.86H254.957V113.453H255.605C256.699 113.453 257.549 113.137 258.154 112.503C258.759 111.869 259.061 111.005 259.061 109.911V108.096H263.943V113.453H269.257V117.86H263.943V128.963C263.943 129.77 264.073 130.461 264.332 131.037C264.591 131.584 265.009 132.017 265.585 132.333C266.161 132.621 266.91 132.765 267.831 132.765C268.062 132.765 268.321 132.751 268.609 132.722C268.897 132.693 269.171 132.665 269.43 132.636V136.827C269.027 136.884 268.58 136.942 268.091 136.999C267.601 137.057 267.169 137.086 266.794 137.086ZM274.194 136.827V113.453H278.86V118.508L278.255 117.731C278.745 116.146 279.638 114.951 280.934 114.145C282.23 113.338 283.713 112.935 285.384 112.935C287.256 112.935 288.912 113.439 290.352 114.447C291.821 115.426 292.8 116.737 293.29 118.379L291.908 118.508C292.599 116.636 293.65 115.239 295.061 114.317C296.502 113.396 298.143 112.935 299.987 112.935C301.6 112.935 303.054 113.309 304.35 114.058C305.675 114.807 306.726 115.844 307.504 117.169C308.282 118.494 308.671 120.006 308.671 121.705V136.827H303.789V123.045C303.789 121.864 303.573 120.87 303.14 120.064C302.737 119.228 302.161 118.595 301.412 118.163C300.692 117.702 299.843 117.471 298.863 117.471C297.884 117.471 297.02 117.702 296.271 118.163C295.522 118.595 294.932 119.228 294.5 120.064C294.068 120.899 293.852 121.892 293.852 123.045V136.827H289.013V123.045C289.013 121.864 288.797 120.87 288.365 120.064C287.962 119.228 287.386 118.595 286.637 118.163C285.917 117.702 285.053 117.471 284.044 117.471C283.065 117.471 282.201 117.702 281.452 118.163C280.703 118.595 280.113 119.228 279.681 120.064C279.278 120.899 279.076 121.892 279.076 123.045V136.827H274.194ZM324.654 137.345C322.407 137.345 320.434 136.913 318.735 136.049C317.064 135.156 315.768 133.975 314.846 132.506C313.925 131.008 313.464 129.352 313.464 127.538C313.464 125.464 314.025 123.678 315.149 122.181C316.301 120.654 317.914 119.545 319.988 118.854L319.772 120.15C318.245 119.574 317.035 118.609 316.142 117.255C315.278 115.873 314.846 114.361 314.846 112.719C314.846 111.077 315.264 109.608 316.099 108.312C316.963 107.016 318.13 105.994 319.599 105.245C321.096 104.496 322.781 104.121 324.654 104.121C326.554 104.121 328.239 104.496 329.708 105.245C331.177 105.965 332.329 106.973 333.165 108.269C334.029 109.565 334.461 111.048 334.461 112.719C334.461 114.418 334.014 115.945 333.121 117.298C332.257 118.623 331.076 119.574 329.579 120.15L329.363 118.854C331.436 119.574 333.049 120.683 334.202 122.181C335.354 123.678 335.93 125.464 335.93 127.538C335.93 129.352 335.454 131.008 334.504 132.506C333.582 133.975 332.272 135.156 330.572 136.049C328.873 136.913 326.9 137.345 324.654 137.345ZM324.654 133.025C325.892 133.025 326.972 132.794 327.894 132.333C328.815 131.844 329.536 131.181 330.054 130.346C330.572 129.511 330.832 128.531 330.832 127.408C330.832 126.285 330.572 125.306 330.054 124.47C329.536 123.635 328.815 122.987 327.894 122.526C326.972 122.065 325.892 121.835 324.654 121.835C323.444 121.835 322.378 122.065 321.456 122.526C320.535 122.987 319.815 123.635 319.296 124.47C318.778 125.306 318.519 126.285 318.519 127.408C318.519 128.531 318.778 129.511 319.296 130.346C319.815 131.181 320.535 131.844 321.456 132.333C322.378 132.794 323.444 133.025 324.654 133.025ZM324.654 117.515C325.575 117.515 326.382 117.327 327.073 116.953C327.793 116.55 328.355 116.002 328.758 115.311C329.161 114.62 329.363 113.842 329.363 112.978C329.363 112.085 329.161 111.308 328.758 110.645C328.355 109.954 327.793 109.421 327.073 109.047C326.382 108.643 325.575 108.442 324.654 108.442C323.761 108.442 322.954 108.643 322.234 109.047C321.514 109.421 320.952 109.954 320.549 110.645C320.146 111.308 319.944 112.085 319.944 112.978C319.944 113.842 320.146 114.62 320.549 115.311C320.952 116.002 321.514 116.55 322.234 116.953C322.954 117.327 323.761 117.515 324.654 117.515Z" fill="white"/>
<path fill-rule="evenodd" clip-rule="evenodd" d="M0 228.156C0 232.986 3.91544 236.902 8.74539 236.902H152.937C152.996 236.902 153.044 236.854 153.044 236.795V236.795C153.044 205.996 110.255 181.03 57.4721 181.03C38.2129 181.03 20.2843 184.353 5.27928 190.072C2.03826 191.307 0 194.474 0 197.943V228.156Z" fill="url(#paint1_radial_648_180)"/>
<path fill-rule="evenodd" clip-rule="evenodd" d="M170.382 104.666C169.589 103.872 168.302 103.872 167.508 104.666C166.714 105.459 166.714 106.746 167.508 107.54L177.249 117.281C177.761 117.794 177.761 118.624 177.249 119.136C177.205 119.181 177.158 119.221 177.11 119.257C177.1 119.268 177.09 119.279 177.079 119.289L175.532 120.836L180.605 125.568C183.84 128.585 181.706 134.004 177.282 134.004H168.871C167.929 135.602 166.191 136.674 164.203 136.674C162.075 136.674 160.234 135.447 159.349 133.661C156.819 132.797 155 130.4 155 127.578V125.407C155 121.857 157.877 118.98 161.427 118.98H171.01C171.797 118.98 172.57 119.125 173.294 119.4L174.475 118.218L165.653 109.395C163.834 107.577 163.834 104.629 165.653 102.81C167.471 100.992 170.419 100.992 172.238 102.81L181.783 112.356C182.067 112.64 182.275 112.99 182.388 113.375L188.36 133.738H190.735C191.459 133.738 192.047 134.325 192.047 135.05C192.047 135.774 191.459 136.362 190.735 136.362H187.378H186.396L186.119 135.419L179.887 114.17L170.382 104.666ZM158.859 130.383C159.278 127.81 161.511 125.845 164.203 125.845C167.193 125.845 169.617 128.269 169.617 131.26C169.617 131.3 169.617 131.34 169.616 131.381H177.282C179.324 131.381 180.309 128.879 178.816 127.487L173.604 122.625C172.9 121.969 171.973 121.604 171.01 121.604H161.427C159.326 121.604 157.624 123.306 157.624 125.407V127.578C157.624 128.688 158.1 129.688 158.859 130.383ZM166.993 131.26C166.993 132.801 165.744 134.05 164.203 134.05C162.661 134.05 161.412 132.801 161.412 131.26C161.412 129.718 162.661 128.469 164.203 128.469C165.744 128.469 166.993 129.718 166.993 131.26Z" fill="white"/>
<defs>
<radialGradient id="paint0_radial_648_180" cx="0" cy="0" r="1" gradientUnits="userSpaceOnUse" gradientTransform="translate(444.991 0.0491371) rotate(-179.959) scale(89.057 92.237)">
<stop stop-color="#0000D2"/>
<stop offset="1" stop-color="#000530"/>
</radialGradient>
<radialGradient id="paint1_radial_648_180" cx="0" cy="0" r="1" gradientUnits="userSpaceOnUse" gradientTransform="translate(57.4719 236.795) rotate(90) scale(55.7652 95.5724)">
<stop stop-color="#00F0FF"/>
<stop offset="1" stop-color="#000530"/>
</radialGradient>
</defs>
</svg>
